<svg width="106" height="24" viewBox="0 0 106 24" fill="none" xmlns="http://www.w3.org/2000/svg">
    <path fill-rule="evenodd" clip-rule="evenodd" d="M17.9999 5.99997L11.9998 11.9999H5.99997H0V17.9999H5.99997L11.9998 24H17.9999H23.9999V17.9999H17.9999H11.9998H5.99997L11.9998 11.9999H17.9999H23.9999V5.99997H17.9999L11.9998 0H5.99997H0V5.99997H5.99997H11.9998H17.9999Z" fill="#4855DC"/>
    <path d="M37.8534 17.816V15.7075H31.6531L37.8534 7.89916V5.95158H28.7583V8.02427H34.7443L28.5797 15.7077V17.8161H37.8532L37.8534 17.816ZM46.3944 17.816V9.02479H44.0894V14.0994C44.0894 15.2609 43.464 16.1007 42.2847 16.1007C41.3019 16.1007 40.8016 15.5646 40.8016 14.4568V9.02492H38.4788V14.8142C38.4788 16.744 39.7117 18.0483 41.4628 18.0483C42.6779 18.0483 43.5891 17.5837 44.1967 16.5831V17.816H46.3945H46.3944ZM55.3285 17.816V9.02479H53.0235V14.0994C53.0235 15.2609 52.3981 16.1007 51.2189 16.1007C50.2361 16.1007 49.7357 15.5646 49.7357 14.4568V9.02492H47.4129V14.8142C47.4129 16.744 48.6459 18.0483 50.3969 18.0483C51.612 18.0483 52.5232 17.5837 53.1308 16.5831V17.816H55.3286H55.3285ZM68.9262 17.816V11.7229C68.9262 10.079 67.6934 8.79251 65.9244 8.79251C64.8165 8.79251 64.0304 9.22143 63.5479 10.1863C62.8688 9.16785 62.2971 8.79251 61.1 8.79251C59.9384 8.79251 59.1165 9.1499 58.5269 10.3113V9.02479H56.347V17.816H58.6697V12.4733C58.6697 11.3298 59.1523 10.758 60.0814 10.758C61.1 10.758 61.4752 11.1154 61.4752 12.5269V17.8159H63.798V12.5627C63.798 11.4906 64.4234 10.6865 65.2811 10.6865C66.1031 10.6865 66.657 11.4369 66.657 12.4912V17.8159H68.9262V17.816ZM79.3791 17.816V5.95158H76.8775V10.4186H72.2496V5.95158H69.7659V17.816H72.2496V12.4913H76.8775V17.816H79.3791ZM84.6323 16.1007C83.2207 16.1007 82.506 15.2072 82.506 13.4204C82.506 11.6336 83.2208 10.758 84.6323 10.758C86.0439 10.758 86.7586 11.6336 86.7586 13.4204C86.7586 15.2072 86.0438 16.1007 84.6323 16.1007ZM84.6323 18.0483C87.366 18.0483 89.0993 16.2079 89.0993 13.4204C89.0993 10.6151 87.384 8.79251 84.6323 8.79251C81.8449 8.79251 80.1117 10.6329 80.1117 13.4204C80.1117 16.1543 81.7914 18.0483 84.6323 18.0483ZM97.4617 11.6871C97.3366 9.79316 96.193 8.79251 93.6558 8.79251C90.9756 8.79251 89.9571 9.91827 89.9571 11.4013C89.9571 12.1875 90.243 12.8665 91.0649 13.3846C91.6904 13.7778 92.5123 14.0279 93.9953 14.3853C94.7459 14.564 95.407 14.7605 95.407 15.3859C95.407 16.0471 94.6744 16.2972 93.8524 16.2972C92.7267 16.2972 92.0298 15.8147 92.0298 14.9929H89.6355C89.6711 16.7797 91.1721 18.0483 93.8702 18.0483C96.3717 18.0483 97.7119 16.9583 97.7119 15.1357C97.7119 13.9921 97.1938 13.3846 96.2645 13.0094C95.5855 12.7414 94.6386 12.5447 93.638 12.2589C92.6909 11.991 92.2085 11.7765 92.2085 11.2584C92.2085 10.7401 92.7087 10.5258 93.5844 10.5258C94.6386 10.5258 95.1032 10.8294 95.2283 11.6871H97.4618H97.4617ZM103.251 14.3137C103.251 15.4037 102.822 16.029 101.893 16.029C100.946 16.029 100.553 15.3858 100.553 14.278V10.6686H105.413V9.02466H100.553V6.64816H98.2657V14.5101C98.2657 16.4041 99.2842 18.048 101.857 18.048C104.341 18.048 105.413 16.3863 105.413 14.5281V12.0265H103.251V14.3136L103.251 14.3137Z" fill="white"/>
</svg>
